<svg id="visual" viewBox="0 0 900 600" width="900" height="600" xmlns="http://www.w3.org/2000/svg" xmlns:xlink="http://www.w3.org/1999/xlink" version="1.1"><rect x="0" y="0" width="900" height="600" fill="#140021"></rect><path d="M489 0L414 0L414 46L381 46L381 92L491 92L491 138L419 138L419 185L461 185L461 231L403 231L403 277L507 277L507 323L456 323L456 369L409 369L409 415L378 415L378 462L446 462L446 508L492 508L492 554L552 554L552 600L0 600L0 554L0 554L0 508L0 508L0 462L0 462L0 415L0 415L0 369L0 369L0 323L0 323L0 277L0 277L0 231L0 231L0 185L0 185L0 138L0 138L0 92L0 92L0 46L0 46L0 0L0 0Z" fill="#9900ff"></path><path d="M443 0L297 0L297 46L381 46L381 92L401 92L401 138L441 138L441 185L453 185L453 231L298 231L298 277L295 277L295 323L436 323L436 369L449 369L449 415L288 415L288 462L372 462L372 508L416 508L416 554L449 554L449 600L0 600L0 554L0 554L0 508L0 508L0 462L0 462L0 415L0 415L0 369L0 369L0 323L0 323L0 277L0 277L0 231L0 231L0 185L0 185L0 138L0 138L0 92L0 92L0 46L0 46L0 0L0 0Z" fill="#8800e2"></path><path d="M273 0L265 0L265 46L232 46L232 92L237 92L237 138L258 138L258 185L306 185L306 231L321 231L321 277L328 277L328 323L229 323L229 369L347 369L347 415L328 415L328 462L203 462L203 508L246 508L246 554L317 554L317 600L0 600L0 554L0 554L0 508L0 508L0 462L0 462L0 415L0 415L0 369L0 369L0 323L0 323L0 277L0 277L0 231L0 231L0 185L0 185L0 138L0 138L0 92L0 92L0 46L0 46L0 0L0 0Z" fill="#7700c6"></path><path d="M234 0L128 0L128 46L154 46L154 92L238 92L238 138L266 138L266 185L186 185L186 231L128 231L128 277L217 277L217 323L208 323L208 369L149 369L149 415L221 415L221 462L177 462L177 508L204 508L204 554L207 554L207 600L0 600L0 554L0 554L0 508L0 508L0 462L0 462L0 415L0 415L0 369L0 369L0 323L0 323L0 277L0 277L0 231L0 231L0 185L0 185L0 138L0 138L0 92L0 92L0 46L0 46L0 0L0 0Z" fill="#6600ab"></path><path d="M142 0L90 0L90 46L162 46L162 92L106 92L106 138L165 138L165 185L61 185L61 231L118 231L118 277L158 277L158 323L81 323L81 369L58 369L58 415L131 415L131 462L116 462L116 508L117 508L117 554L167 554L167 600L0 600L0 554L0 554L0 508L0 508L0 462L0 462L0 415L0 415L0 369L0 369L0 323L0 323L0 277L0 277L0 231L0 231L0 185L0 185L0 138L0 138L0 92L0 92L0 46L0 46L0 0L0 0Z" fill="#560090"></path></svg>